<?xml version="1.0" encoding="UTF-8" standalone="no"?>
<svg
   version="1.1"
   id="Layer_1"
   x="0px"
   y="0px"
   width="100%"
   viewBox="0 0 2625 823"
   enable-background="new 0 0 2625 823"
   xml:space="preserve"
   sodipodi:docname="Youngstown wordmark.svg.2022_08_11_15_18_35.0.svg"
   inkscape:version="1.1.1 (3bf5ae0d25, 2021-09-20)"
   xmlns:inkscape="http://www.inkscape.org/namespaces/inkscape"
   xmlns:sodipodi="http://sodipodi.sourceforge.net/DTD/sodipodi-0.dtd"
   xmlns="http://www.w3.org/2000/svg"
   xmlns:svg="http://www.w3.org/2000/svg"><defs
   id="defs1038" /><sodipodi:namedview
   id="namedview1036"
   pagecolor="#ffffff"
   bordercolor="#666666"
   borderopacity="1.0"
   inkscape:pageshadow="2"
   inkscape:pageopacity="0.0"
   inkscape:pagecheckerboard="0"
   showgrid="false"
   inkscape:zoom="0.50019048"
   inkscape:cx="1312.5"
   inkscape:cy="410.84349"
   inkscape:window-width="1920"
   inkscape:window-height="1001"
   inkscape:window-x="-9"
   inkscape:window-y="-9"
   inkscape:window-maximized="1"
   inkscape:current-layer="Layer_1" />

<path
   fill="#21629C"
   opacity="1.000000"
   stroke="none"
   d=" M1982.405151,375.559814   C1994.388184,414.694611 2006.223022,453.458130 2018.433472,493.451477   C2020.811890,486.742462 2022.852661,481.134613 2024.791504,475.491699   C2035.695435,443.757965 2046.584595,412.019073 2057.440674,380.268890   C2058.186279,378.087921 2059.176514,375.781586 2059.098145,373.567322   C2058.869385,367.078613 2056.190918,364.805115 2049.651367,364.807495   C2043.361572,364.809814 2037.071899,364.808014 2030.487305,364.808014   C2030.487305,354.253296 2030.487305,344.193878 2030.487305,333.842010   C2061.127686,333.842010 2091.558838,333.842010 2122.409180,333.842010   C2122.409180,343.918152 2122.409180,353.966644 2122.409180,364.608093   C2113.087646,364.608093 2103.687256,364.608093 2093.283447,364.608093   C2106.991943,407.216644 2120.433838,448.997406 2134.356201,492.270752   C2147.497070,448.982819 2160.187988,407.176666 2173.062012,364.766785   C2163.281494,364.766785 2154.017090,364.766785 2144.471680,364.766785   C2144.471680,354.354919 2144.471680,344.437408 2144.471680,334.035034   C2174.574463,334.035034 2204.607178,334.035034 2234.872803,334.035034   C2234.872803,344.139862 2234.872803,354.216003 2234.872803,364.798798   C2228.669678,364.798798 2222.698975,365.076660 2216.769775,364.700256   C2212.873779,364.452972 2211.302734,365.900421 2210.147705,369.482697   C2192.507568,424.188873 2174.667480,478.830780 2157.108398,533.562805   C2155.620850,538.199219 2153.623779,539.781799 2148.801270,539.561584   C2139.655273,539.143860 2130.473633,539.256409 2121.314941,539.480652   C2117.701416,539.569153 2116.177246,538.275574 2115.015381,534.878235   C2103.350830,500.769012 2091.498047,466.724060 2079.684082,432.665894   C2079.047607,430.830872 2078.284424,429.039703 2077.231689,426.331390   C2075.614258,430.613068 2074.249756,434.121826 2072.959229,437.657654   C2061.167969,469.965546 2049.332031,502.257599 2037.684204,534.617249   C2036.351440,538.320068 2034.642700,539.718567 2030.575562,539.558716   C2021.091797,539.185791 2011.578735,539.213318 2002.089722,539.494507   C1998.425293,539.603149 1996.995850,538.374634 1995.894653,534.964294   C1983.693359,497.180298 1971.312744,459.454285 1958.985474,421.710968   C1953.311890,404.339539 1947.560303,386.992615 1942.055542,369.567780   C1940.934814,366.019928 1939.405640,364.457214 1935.476196,364.709167   C1929.677368,365.081024 1923.837158,364.805206 1917.597900,364.805206   C1917.597900,354.526947 1917.597900,344.462463 1917.597900,333.973175   C1947.484619,333.973175 1977.549927,333.973175 2007.866943,333.973175   C2007.866943,344.093231 2007.866943,354.177155 2007.866943,364.728882   C1998.394287,364.728882 1989.131226,364.728882 1979.285034,364.728882   C1980.385620,368.602417 1981.321289,371.895477 1982.405151,375.559814  z"
   id="path979"
   style="fill:#2e6081;fill-opacity:1" />
<path
   fill="#20619C"
   opacity="1.000000"
   stroke="none"
   d=" M921.451111,375.554443   C944.415161,408.642914 967.155212,441.449341 990.577393,475.239868   C990.577393,437.850250 990.577393,401.683868 990.577393,365.043610   C981.583862,365.043610 972.669006,365.043610 963.373901,365.043610   C963.373901,354.526947 963.373901,344.472015 963.373901,334.018433   C993.868530,334.018433 1024.425781,334.018433 1055.398071,334.018433   C1055.398071,344.019989 1055.398071,354.059692 1055.398071,364.600891   C1046.510132,364.600891 1037.593018,364.600891 1028.132690,364.600891   C1028.132690,422.981628 1028.132690,480.870483 1028.132690,539.333984   C1016.655701,539.333984 1005.714111,539.471008 994.784363,539.173218   C993.297607,539.132751 991.517578,537.165649 990.467346,535.672791   C971.403809,508.573822 952.432739,481.409760 933.438965,454.261688   C919.599304,434.480347 905.756226,414.701355 891.909241,394.925079   C891.344666,394.118683 890.725098,393.350800 889.542969,391.786652   C889.542969,430.939972 889.542969,469.194763 889.542969,507.827576   C898.431091,507.827576 907.363403,507.827576 916.647461,507.827576   C916.647461,518.406311 916.647461,528.614319 916.647461,539.086975   C885.967102,539.086975 855.392883,539.086975 824.498291,539.086975   C824.498291,528.787292 824.498291,518.710754 824.498291,508.082825   C833.505371,508.082825 842.405273,508.082825 851.599731,508.082825   C851.599731,460.147522 851.599731,412.760925 851.599731,364.944214   C842.610046,364.944214 833.837524,364.944214 824.627686,364.944214   C824.627686,354.487640 824.627686,344.449524 824.627686,333.931641   C826.207214,333.840240 827.804688,333.669006 829.402344,333.667389   C849.066467,333.647491 868.731201,333.729919 888.394043,333.570129   C891.470581,333.545105 893.163879,334.605469 894.830261,337.058655   C903.528992,349.864624 912.409668,362.546997 921.451111,375.554443  z"
   id="path981"
   style="fill:#2e6081;fill-opacity:1" />
<path
   fill="#20619C"
   opacity="1.000000"
   stroke="none"
   d=" M2376.831055,477.170837   C2356.878662,448.685089 2337.127441,420.496216 2316.650635,391.271576   C2316.650635,430.897095 2316.650635,469.198151 2316.650635,507.969971   C2325.787354,507.969971 2334.701416,507.969971 2343.865234,507.969971   C2343.865234,518.518677 2343.865234,528.599243 2343.865234,539.024658   C2313.340332,539.024658 2282.933838,539.024658 2252.087891,539.024658   C2252.087891,528.897949 2252.087891,518.704590 2252.087891,507.984558   C2260.994873,507.984558 2269.905518,507.984558 2279.000000,507.984558   C2279.000000,460.183350 2279.000000,412.903320 2279.000000,364.995514   C2270.115234,364.995514 2261.228271,364.995514 2252.003906,364.995514   C2252.003906,354.329529 2252.003906,344.288300 2252.003906,333.654663   C2254.967041,333.654663 2257.750488,333.655121 2260.533936,333.654572   C2278.698975,333.651031 2296.864258,333.713776 2315.028320,333.582764   C2318.327881,333.558990 2320.380371,334.468811 2322.359619,337.338196   C2353.276123,382.158905 2384.342041,426.876526 2415.379639,471.613586   C2415.945068,472.428467 2416.586426,473.190582 2417.614746,474.525696   C2417.614746,437.811920 2417.614746,401.671326 2417.614746,365.020569   C2408.800781,365.020569 2399.897705,365.020569 2390.593750,365.020569   C2390.593750,354.474976 2390.593750,344.429718 2390.593750,334.009521   C2421.211914,334.009521 2451.788818,334.009521 2482.746094,334.009521   C2482.746094,343.961334 2482.746094,354.040619 2482.746094,364.644958   C2473.910889,364.644958 2464.983887,364.644958 2455.435303,364.644958   C2455.435303,423.033447 2455.435303,480.906403 2455.435303,539.326904   C2443.863281,539.326904 2432.911377,539.465576 2421.971924,539.161926   C2420.505371,539.121216 2418.776855,537.074829 2417.717529,535.571411   C2404.097900,516.244324 2390.577637,496.847168 2376.831055,477.170837  z"
   id="path983"
   style="fill:#2e6081;fill-opacity:1" />
<path
   fill="#20619C"
   opacity="1.000000"
   stroke="none"
   d=" M1170.560669,542.513550   C1147.856934,539.828064 1127.261963,533.021973 1109.916748,518.257385   C1091.537354,502.612518 1081.826782,482.192078 1078.412598,458.721527   C1074.956421,434.961334 1076.482422,411.511627 1085.972412,389.145264   C1099.763062,356.642487 1125.398438,338.567108 1159.219971,332.323090   C1196.009155,325.531219 1231.739502,330.611481 1266.063965,345.574036   C1269.056885,346.878723 1270.243408,348.407562 1270.198486,351.827576   C1269.985596,367.980103 1270.103638,384.136993 1270.103638,400.646759   C1257.892090,400.646759 1245.836060,400.646759 1233.388306,400.646759   C1233.388306,390.345062 1233.388306,380.074585 1233.388306,368.843506   C1225.206055,367.063232 1217.227539,365.024841 1209.137939,363.632446   C1194.036499,361.033142 1178.948730,361.204498 1164.127930,365.527618   C1141.547119,372.114319 1126.875610,386.908997 1120.374878,409.377777   C1114.837402,428.516876 1114.750000,447.935181 1121.213135,466.855530   C1129.785278,491.948975 1148.682983,504.792664 1174.114014,508.898315   C1192.880615,511.928070 1211.263062,509.563232 1229.266602,503.898071   C1230.785034,503.420258 1232.994019,501.650604 1233.017944,500.444061   C1233.286011,486.969238 1233.187134,473.487122 1233.187134,459.361206   C1218.770874,459.361206 1204.716187,459.361206 1190.444702,459.361206   C1190.444702,448.965729 1190.444702,439.220001 1190.444702,429.172607   C1222.604370,429.172607 1254.508057,429.172607 1286.715820,429.172607   C1286.715820,439.151825 1286.715820,449.055634 1286.715820,459.458191   C1281.241455,459.458191 1275.833862,459.458191 1270.001343,459.458191   C1270.001343,470.411041 1270.001465,480.873688 1270.001221,491.336334   C1270.001099,500.667877 1269.730225,510.011078 1270.130859,519.325378   C1270.295410,523.153381 1268.490479,524.549011 1265.642700,525.942322   C1239.387695,538.788696 1211.607178,544.260498 1182.479370,543.257629   C1178.653198,543.125916 1174.833252,542.813965 1170.560669,542.513550  z"
   id="path985"
   style="fill:#2e6081;fill-opacity:1" />
<path
   fill="#FF2809"
   opacity="1.000000"
   stroke="none"
   d=" M673.299255,505.933685   C685.905640,508.948700 698.108582,509.124908 710.165894,505.410797   C725.451050,500.702332 733.744568,489.937103 735.955811,474.366455   C736.632080,469.604706 736.835205,464.742523 736.847900,459.925262   C736.925903,430.268799 736.887268,400.612091 736.887512,370.955444   C736.887573,369.147064 736.887573,367.338684 736.887573,364.924255   C727.242188,364.924255 717.861816,364.924255 708.242065,364.924255   C708.242065,354.232391 708.242065,344.147614 708.242065,333.826660   C739.140869,333.826660 769.897705,333.826660 800.757751,333.826660   C800.757751,344.160461 800.757751,354.250946 800.757751,364.764099   C791.593628,364.764099 782.662292,364.764099 773.114563,364.764099   C773.114563,366.953979 773.114563,368.725861 773.114563,370.497742   C773.114685,403.319977 773.131287,436.142242 773.110657,468.964478   C773.085999,508.118042 747.519531,537.022583 708.569519,542.063965   C687.609070,544.776978 666.995544,543.927490 647.311401,535.477295   C619.831299,523.680420 606.630737,501.948486 606.129211,472.705658   C605.549377,438.893707 605.995117,405.064178 605.995483,371.242279   C605.995483,369.279449 605.995422,367.316620 605.995422,364.879547   C596.670715,364.879547 587.760620,364.879547 578.537292,364.879547   C578.537292,354.336151 578.537292,344.267456 578.537292,333.892151   C609.839355,333.892151 641.097290,333.892151 672.679016,333.892151   C672.679016,343.976440 672.679016,354.045990 672.679016,364.719299   C663.732117,364.719299 654.677979,364.719299 645.114624,364.719299   C645.114624,366.931427 645.114624,368.548889 645.114624,370.166321   C645.114197,401.322449 645.060974,432.478760 645.170715,463.634491   C645.187073,468.271881 645.556152,472.990540 646.475586,477.527008   C649.466370,492.283478 658.581665,501.547394 673.299255,505.933685  z"
   id="path987"
   style="fill:#ef4d27;fill-opacity:1" />
<path
   fill="#FE280A"
   opacity="1.000000"
   stroke="none"
   d=" M549.175293,387.821320   C565.647095,428.888153 563.827026,468.025238 537.571655,504.160980   C522.073120,525.492004 499.901642,537.190979 474.198578,541.538086   C446.700958,546.188721 419.992920,543.268433 395.440491,529.049316   C365.760223,511.860596 350.203125,485.266632 346.072601,451.749878   C342.913116,426.112366 346.756134,401.564667 360.045990,379.059631   C376.257233,351.607605 400.863251,336.158173 431.900787,331.168304   C459.101807,326.795227 485.367065,330.122681 509.600800,344.240997   C527.239258,354.516998 540.285522,369.050262 549.175293,387.821320  M449.793030,362.374451   C420.474762,364.146729 400.499390,378.737671 390.373749,406.295227   C385.784180,418.786041 384.906525,431.840637 385.870178,445.124725   C388.483093,481.144562 411.584595,508.630524 448.026520,510.293884   C474.512756,511.502808 495.535950,501.733124 509.013214,478.342163   C519.059814,460.905487 520.480286,441.846558 518.070740,422.219452   C513.641541,386.141479 486.987366,362.379333 449.793030,362.374451  z"
   id="path989"
   style="fill:#ef4d27;fill-opacity:1" />
<path
   fill="#20619C"
   opacity="1.000000"
   stroke="none"
   d=" M1769.507812,333.386108   C1794.984619,327.412384 1819.927246,327.651154 1843.973633,337.340546   C1878.301270,351.172821 1898.913818,377.041901 1905.817017,413.170471   C1911.683228,443.873169 1907.584473,473.314789 1889.594971,499.628601   C1872.771606,524.236816 1848.797729,537.812561 1819.555664,542.003052   C1792.796143,545.837769 1766.976685,542.653442 1743.367920,528.669434   C1714.955566,511.840149 1699.439331,486.280762 1694.985474,453.896545   C1691.690430,429.937531 1694.382202,406.640869 1705.409790,384.878296   C1718.878906,358.297516 1740.523071,341.511200 1769.507812,333.386108  M1841.602051,497.141571   C1846.986816,490.868011 1853.610718,485.279572 1857.527954,478.194641   C1870.132080,455.397888 1871.034668,431.057556 1862.848877,406.715363   C1854.846191,382.917999 1838.197876,367.789642 1813.123901,363.558441   C1788.816528,359.456665 1767.472900,365.724548 1751.013550,384.850220   C1740.309082,397.288666 1735.699219,412.325714 1734.452759,428.438965   C1732.980591,447.470337 1735.758545,465.728424 1746.294434,482.044037   C1766.249023,512.945068 1809.917847,520.011108 1841.602051,497.141571  z"
   id="path991"
   style="fill:#2e6081;fill-opacity:1" />
<path
   fill="#1F619C"
   opacity="1.000000"
   stroke="none"
   d=" M1954.000000,611.652954   C2043.269043,611.652832 2132.038086,611.652832 2221.074707,611.652832   C2221.074707,615.341858 2221.074707,618.439880 2221.074707,621.946228   C1555.858398,621.946228 890.697144,621.946228 225.087051,621.946228   C225.087051,618.907898 225.087051,615.689636 225.087051,611.653015   C801.150208,611.653015 1377.325073,611.653015 1954.000000,611.652954  z"
   id="path993"
   style="fill:#2e6081;fill-opacity:1" />
<path
   fill="#FF2809"
   opacity="1.000000"
   stroke="none"
   d=" M120.669678,333.876587   C152.541931,333.668793 184.009354,333.668793 215.739319,333.668793   C215.739319,343.868317 215.739319,353.796936 215.739319,364.252197   C206.577271,364.252197 197.333923,364.252197 186.582336,364.252197   C201.199600,387.578583 215.157806,409.853241 229.658386,432.993408   C244.133926,410.120117 258.269379,387.784271 272.903992,364.659607   C262.830017,364.659607 253.613190,364.659607 244.137390,364.659607   C244.137390,354.182251 244.137390,344.245422 244.137390,333.948517   C275.043152,333.948517 305.919678,333.948517 337.098663,333.948517   C337.098663,344.136475 337.098663,354.229614 337.098663,364.812042   C330.731537,364.812042 324.587036,364.573517 318.480988,364.953430   C316.582092,365.071594 314.069611,366.397278 313.051025,367.960571   C292.602386,399.344086 272.282227,430.811920 252.118851,462.379456   C250.530838,464.865601 249.601105,468.191589 249.531265,471.154724   C249.245438,483.282593 249.412003,495.421143 249.412003,507.973236   C258.997131,507.973236 268.439850,507.973236 278.148621,507.973236   C278.148621,518.481384 278.148621,528.574951 278.148621,539.038574   C245.916611,539.038574 213.692764,539.038574 181.227676,539.038574   C181.227676,528.871521 181.227676,518.769653 181.227676,508.156799   C190.620682,508.156799 200.022110,508.156799 209.976334,508.156799   C209.976334,494.885620 210.034134,482.114502 209.890335,469.345642   C209.875336,468.013367 208.787186,466.617157 207.994186,465.380707   C187.233932,433.011536 166.410889,400.682495 145.732803,368.261017   C144.080124,365.669708 142.373398,364.645782 139.345306,364.750092   C133.060654,364.966614 126.763336,364.815491 120.264854,364.815491   C120.264854,354.257050 120.264854,344.170685 120.669678,333.876587  z"
   id="path995"
   style="fill:#ef4d27;fill-opacity:1" />
<path
   fill="#21629C"
   opacity="1.000000"
   stroke="none"
   d=" M1456.602295,390.947327   C1444.993164,391.076996 1433.836060,391.076996 1422.024048,391.076996   C1422.024048,381.892426 1422.024048,372.843781 1422.024048,363.523438   C1405.277832,360.895782 1389.119873,358.866669 1373.004395,363.208557   C1364.222534,365.574646 1356.512817,369.755219 1353.866699,379.539917   C1351.374756,388.754242 1353.941772,398.095825 1362.656128,403.012756   C1372.685425,408.671692 1383.702148,412.625885 1394.412842,417.020844   C1407.614136,422.437775 1421.580933,426.348724 1434.089478,433.023346   C1465.084473,449.562256 1473.686401,492.401672 1452.209595,519.624390   C1442.170166,532.349854 1428.027954,538.025024 1412.674194,540.947815   C1388.062134,545.632935 1363.598511,543.255066 1339.274780,538.524475   C1331.289917,536.971619 1323.364990,535.058655 1315.505859,532.961060   C1314.158081,532.601379 1312.346558,530.493958 1312.328125,529.171997   C1312.107666,513.359741 1312.185791,497.543304 1312.185791,481.306519   C1324.003052,481.306519 1335.558594,481.306519 1347.523682,481.306519   C1347.523682,489.784088 1347.523682,498.385254 1347.523682,508.051697   C1354.672485,509.197998 1361.605713,511.140747 1368.565186,511.240540   C1380.475220,511.411255 1392.547363,511.407227 1404.282349,509.664764   C1416.972534,507.780487 1423.793213,500.236450 1425.244995,489.460144   C1426.455322,480.476318 1423.624878,472.285767 1416.001221,467.730713   C1406.824951,462.247864 1396.764893,458.105957 1386.788086,454.135773   C1373.842896,448.984314 1360.199829,445.451691 1347.576050,439.656097   C1323.902588,428.787354 1313.336304,409.986603 1315.101318,384.769135   C1316.802979,360.456055 1330.593628,343.239075 1354.784180,335.035614   C1372.682373,328.965973 1391.167358,328.246704 1409.574829,330.491241   C1424.197388,332.274323 1438.567261,336.122284 1453.056030,339.019531   C1456.406982,339.689636 1457.998169,341.157410 1457.919922,345.044983   C1457.642090,358.872131 1457.824097,372.708191 1457.764648,386.540558   C1457.758423,387.967255 1457.301758,389.392029 1456.602295,390.947327  z"
   id="path997"
   style="fill:#2e6081;fill-opacity:1" />
<path
   fill="#20619C"
   opacity="1.000000"
   stroke="none"
   d=" M1629.809814,530.935364   C1629.809937,533.881531 1629.809937,536.338013 1629.809937,539.072266   C1596.341919,539.072266 1563.419800,539.072266 1530.066650,539.072266   C1530.066650,528.898621 1530.066650,518.689758 1530.066650,508.159180   C1539.624634,508.159180 1549.412354,508.159180 1559.597412,508.159180   C1559.597412,460.336548 1559.597412,412.829498 1559.597412,365.067749   C1547.112671,365.067749 1534.721069,365.067749 1521.811035,365.067749   C1521.811035,375.406006 1521.811035,385.481384 1521.811035,395.838867   C1509.724243,395.838867 1498.153076,395.838867 1486.281982,395.838867   C1486.281982,375.211029 1486.281982,354.658234 1486.281982,333.874725   C1548.400635,333.874725 1610.319458,333.874725 1672.675049,333.874725   C1672.675049,354.374512 1672.675049,374.904114 1672.675049,395.783936   C1661.397461,395.783936 1649.995850,395.783936 1638.121460,395.783936   C1638.121460,385.822449 1638.121460,375.748413 1638.121460,365.240814   C1624.983154,365.240814 1612.309448,365.240814 1599.368652,365.240814   C1599.368652,412.625061 1599.368652,459.878906 1599.368652,507.676514   C1609.229370,507.676514 1619.128906,507.676514 1629.809692,507.676514   C1629.809692,515.610657 1629.809692,523.028137 1629.809814,530.935364  z"
   id="path999"
   style="fill:#2e6081;fill-opacity:1" />
<path
   fill="#24659D"
   opacity="1.000000"
   stroke="none"
   d=" M600.469788,269.297729   C600.563416,271.938324 600.832703,273.958496 597.350403,273.886475   C588.030701,273.693634 578.704346,273.820740 568.965149,273.820740   C568.965149,271.395874 568.965149,269.195923 568.965149,267.070312   C569.482300,266.854370 569.771606,266.641296 570.074158,266.620544   C580.518860,265.903229 580.158997,265.889618 580.647705,255.052399   C580.964539,248.025818 579.164062,242.158386 575.244019,236.414825   C570.372131,229.276581 566.126038,221.710526 561.626892,214.318726   C556.595703,206.052780 556.604126,206.047653 546.243652,207.540344   C546.243652,211.573196 546.243652,215.683685 546.243652,220.147232   C543.624268,220.147232 541.410461,220.147232 538.791504,220.147232   C538.791504,215.761063 538.791504,211.650558 538.791504,207.286469   C531.809021,207.286469 525.227112,207.286469 518.324463,207.286469   C518.324463,226.920013 518.324463,246.478989 518.324463,266.488770   C522.276245,266.488770 526.035767,266.488770 530.112549,266.488770   C530.112549,269.002014 530.112549,271.069244 530.112549,273.482849   C519.424255,273.482849 508.881195,273.482849 498.116577,273.482849   C498.116577,271.174316 498.116577,269.084839 498.116577,266.480957   C502.111237,266.480957 505.868835,266.480957 509.895081,266.480957   C509.895081,246.537674 509.895081,227.107849 509.895081,207.344482   C503.184113,207.344482 496.456543,207.344482 489.312256,207.344482   C489.312256,211.683228 489.312256,215.798416 489.312256,220.169754   C486.814484,220.169754 484.723297,220.169754 482.303894,220.169754   C482.303894,213.418045 482.303894,206.712845 482.303894,199.743271   C513.736633,199.743271 545.011475,199.743271 576.648071,199.743271   C576.648071,202.027725 576.648071,204.237549 576.648071,206.838715   C573.604919,206.838715 570.498657,206.838715 566.174805,206.838715   C572.493042,217.365799 578.327759,227.087296 584.478027,237.334518   C590.600525,227.250229 596.433350,217.642975 602.704895,207.313232   C599.010498,207.313232 595.985474,207.313232 592.571838,207.313232   C592.571838,204.556503 592.571838,202.346085 592.571838,199.832306   C602.602661,199.832306 612.533264,199.832306 622.790771,199.832306   C622.790771,202.109055 622.790771,204.322235 622.790771,206.467789   C622.566284,206.642792 622.411377,206.854553 622.306824,206.832092   C613.234009,204.882492 609.067139,210.268616 605.375000,217.384125   C601.628784,224.603882 597.201721,231.504135 592.654175,238.262619   C589.539307,242.891876 587.975281,247.620728 588.402832,253.202560   C588.718384,257.321960 588.464722,261.484985 588.464722,266.530304   C591.568665,266.530304 594.342896,266.294434 597.043823,266.637146   C598.259644,266.791443 599.329041,268.100494 600.469788,269.297729  z"
   id="path1001"
   style="fill:#2e6081;fill-opacity:1" />
<path
   fill="#25669E"
   opacity="1.000000"
   stroke="none"
   d=" M211.016022,221.985962   C211.016068,225.627518 211.016068,228.772995 211.016068,232.233826   C225.074142,232.233826 238.798309,232.233826 252.852219,232.233826   C252.852219,223.933243 252.852219,215.709564 252.852219,207.095398   C249.038071,207.095398 245.431717,207.095398 241.504089,207.095398   C241.504089,204.504562 241.504089,202.294434 241.504089,199.801910   C251.915314,199.801910 262.189392,199.801910 272.742188,199.801910   C272.742188,202.136993 272.742188,204.358215 272.742188,206.964340   C268.971741,206.964340 265.364868,206.964340 261.446808,206.964340   C261.446808,226.894867 261.446808,246.445206 261.446808,266.470795   C265.313049,266.470795 268.924103,266.470795 272.770935,266.470795   C272.770935,269.038025 272.770935,271.133270 272.770935,273.531372   C262.423187,273.531372 252.165726,273.531372 241.536194,273.531372   C241.536194,271.406738 241.536194,269.340454 241.536194,266.638062   C245.143433,266.638062 248.870056,266.638062 252.881348,266.638062   C252.881348,257.580475 252.881348,249.145157 252.881348,240.358643   C239.161026,240.358643 225.419540,240.358643 211.345734,240.358643   C211.345734,248.860107 211.345734,257.417694 211.345734,266.395752   C215.095245,266.395752 218.697906,266.395752 222.655624,266.395752   C222.655624,268.985260 222.655624,271.165253 222.655624,273.536865   C212.208557,273.536865 201.965164,273.536865 191.441681,273.536865   C191.441681,271.168884 191.441681,269.098602 191.441681,266.604126   C195.283798,266.604126 198.896042,266.604126 202.840378,266.604126   C202.840378,246.624969 202.840378,227.067444 202.840378,207.110535   C199.075729,207.110535 195.470001,207.110535 191.516830,207.110535   C191.516830,204.501465 191.516830,202.279694 191.516830,199.791992   C201.858734,199.791992 212.134933,199.791992 222.716690,199.791992   C222.716690,202.116455 222.716690,204.332870 222.716690,206.892853   C218.973190,206.892853 215.357330,206.892853 211.015976,206.892853   C211.015976,211.973038 211.015976,216.731461 211.016022,221.985962  z"
   id="path1003"
   style="fill:#2e6081;fill-opacity:1" />
<path
   fill="#24659D"
   opacity="1.000000"
   stroke="none"
   d=" M2343.143066,610.191284   C2350.582031,610.194031 2357.535400,610.194031 2364.734375,610.194031   C2364.734375,604.946289 2364.734375,600.207275 2364.734375,595.204895   C2362.268799,595.071838 2360.005127,594.949707 2357.457275,594.812256   C2357.457275,592.051575 2357.457275,589.471741 2357.457275,586.530273   C2366.093506,586.530273 2374.649658,586.530273 2383.511475,586.530273   C2383.511475,589.215576 2383.511475,591.787659 2383.511475,594.720215   C2381.218018,594.894043 2378.968262,595.064514 2376.424805,595.257263   C2376.424805,608.151978 2376.424805,620.903381 2376.424805,634.172119   C2378.659912,634.377808 2380.887207,634.582703 2383.457031,634.819153   C2383.457031,637.484192 2383.457031,640.052856 2383.457031,643.050781   C2375.006104,643.050781 2366.455322,643.050781 2357.532227,643.050781   C2357.532227,640.482849 2357.532227,637.913025 2357.532227,634.928040   C2359.827881,634.683533 2362.218994,634.428833 2364.787598,634.155212   C2364.787598,629.343750 2364.787598,624.730957 2364.787598,619.791077   C2356.026611,619.791077 2347.458984,619.791077 2338.507080,619.791077   C2338.507080,624.473022 2338.507080,629.046387 2338.507080,634.165833   C2340.789307,634.361267 2343.177246,634.565735 2345.784180,634.789001   C2345.784180,637.567993 2345.784180,640.175537 2345.784180,643.125122   C2337.205811,643.125122 2328.665771,643.125122 2319.839600,643.125122   C2319.839600,640.378174 2319.839600,637.791687 2319.839600,634.862549   C2322.149658,634.634705 2324.397217,634.412964 2326.908203,634.165283   C2326.908203,621.260925 2326.908203,608.489746 2326.908203,595.293274   C2324.668701,595.141602 2322.407471,594.988525 2319.850342,594.815369   C2319.850342,592.172119 2319.850342,589.584534 2319.850342,586.583252   C2328.427734,586.583252 2336.954102,586.583252 2345.754150,586.583252   C2345.754150,589.243958 2345.754150,591.829468 2345.754150,594.754761   C2343.349121,594.919067 2340.953857,595.082642 2338.352539,595.260315   C2338.352539,600.140930 2338.352539,604.744995 2338.352539,609.805359   C2339.819336,609.935913 2341.238525,610.062195 2343.143066,610.191284  z"
   id="path1005"
   style="fill:#2e6081;fill-opacity:1" />
<path
   fill="#24659D"
   opacity="1.000000"
   stroke="none"
   d=" M298.460266,249.021667   C298.462738,254.016373 298.555481,258.515106 298.433258,263.008026   C298.363586,265.568146 299.327332,266.579254 301.913940,266.555573   C311.059265,266.471924 320.205841,266.522980 329.981628,266.522980   C329.981628,261.673065 329.981628,257.118561 329.981628,252.279449   C332.834229,252.279449 335.058594,252.279449 337.560181,252.279449   C337.560181,259.362671 337.560181,266.268799 337.560181,273.495850   C318.103302,273.495850 298.873718,273.495850 279.256470,273.495850   C279.256470,271.421906 279.256470,269.361176 279.256470,267.018158   C279.708405,266.889221 280.299561,266.594269 280.902679,266.567261   C290.558929,266.135284 290.554474,266.143097 290.552002,256.194489   C290.547974,240.050339 290.550934,223.906204 290.550934,207.251312   C286.694244,207.251312 283.124908,207.251312 279.225159,207.251312   C279.225159,204.527115 279.225159,202.301605 279.225159,199.879517   C298.651794,199.879517 318.040741,199.879517 337.628845,199.879517   C337.628845,207.007980 337.628845,213.797867 337.628845,221.029694   C335.183014,221.029694 332.821411,221.029694 330.070129,221.029694   C330.070129,216.560471 330.070129,212.123215 330.070129,207.352020   C319.483093,207.352020 309.265442,207.352020 298.746582,207.352020   C298.746582,215.715164 298.746582,223.959595 298.746582,232.696198   C309.948547,232.696198 321.033630,232.696198 332.463440,232.696198   C332.463440,235.236420 332.463440,237.294617 332.463440,239.980896   C321.291748,239.980896 310.069427,239.980896 298.460480,239.980896   C298.460480,243.240738 298.460480,245.882004 298.460266,249.021667  z"
   id="path1007"
   style="fill:#2e6081;fill-opacity:1" />
<path
   fill="#27679E"
   opacity="1.000000"
   stroke="none"
   d=" M709.728760,205.226807   C728.979797,219.375687 728.524353,253.007217 711.445862,266.666504   C698.641418,276.907471 684.213196,278.065430 669.735352,271.298065   C655.878784,264.821167 650.093506,252.721786 649.842041,237.676926   C649.593079,222.780701 654.370178,210.292831 667.922974,202.975464   C681.903198,195.427307 696.000305,196.181839 709.728760,205.226807  M657.828857,233.721603   C657.290283,244.860748 659.434326,255.129532 668.982971,262.106506   C678.651123,269.170837 689.411072,269.832092 700.135315,264.864197   C711.527222,259.587067 715.724121,249.544830 716.174011,237.655563   C716.858826,219.556931 705.767151,206.743179 688.612549,205.563370   C672.136353,204.430237 659.552612,215.582321 657.828857,233.721603  z"
   id="path1009"
   style="fill:#2e6081;fill-opacity:1" />
<path
   fill="#25669D"
   opacity="1.000000"
   stroke="none"
   d=" M2435.725586,638.338867   C2424.397217,628.070984 2421.703369,611.642517 2429.044434,599.020447   C2435.847412,587.323486 2450.652832,582.185608 2464.807617,586.609436   C2479.140381,591.088928 2486.981934,605.470581 2483.939209,621.697632   C2481.317871,635.677734 2468.611084,645.668884 2453.693848,644.236389   C2447.669678,643.657898 2441.889404,640.538574 2435.725586,638.338867  M2445.780029,633.004333   C2447.814941,633.666382 2449.805908,634.648987 2451.892334,634.934021   C2460.195557,636.067810 2467.243896,632.556030 2470.757568,625.788208   C2474.940430,617.731750 2473.653320,606.108887 2467.910156,600.073364   C2460.221680,591.993530 2446.551270,592.642273 2440.351074,601.445435   C2433.951904,610.530884 2435.295654,626.930664 2445.780029,633.004333  z"
   id="path1011"
   style="fill:#2e6081;fill-opacity:1" />
<path
   fill="#25669D"
   opacity="1.000000"
   stroke="none"
   d=" M2277.732666,585.555908   C2302.597412,582.940552 2318.898193,602.419067 2311.408936,625.181274   C2306.792969,639.211060 2292.669189,646.821228 2276.549561,643.964294   C2262.304932,641.439575 2252.698975,628.699524 2253.547607,613.458252   C2254.391113,598.311035 2262.831299,588.442810 2277.732666,585.555908  M2298.201172,602.476624   C2294.030518,596.075745 2287.953369,593.636963 2280.626953,594.675415   C2269.375977,596.270203 2262.917969,606.829956 2265.133545,619.498291   C2266.810303,629.084595 2273.995117,635.246948 2283.452393,635.209412   C2292.800049,635.172302 2300.335449,628.828186 2301.004639,619.002441   C2301.360352,613.780151 2299.491699,608.406433 2298.201172,602.476624  z"
   id="path1013"
   style="fill:#2e6081;fill-opacity:1" />
<path
   fill="#24669D"
   opacity="1.000000"
   stroke="none"
   d=" M731.578369,199.594955   C750.813049,199.556732 769.597656,199.556732 788.598877,199.556732   C788.598877,207.422073 788.598877,214.699142 788.598877,222.410645   C786.204163,222.410645 783.853882,222.410645 781.035767,222.410645   C781.035767,217.423965 781.035767,212.498428 781.035767,207.298096   C770.523621,207.298096 760.461487,207.298096 750.110901,207.298096   C750.110901,216.029480 750.110901,224.599716 750.110901,233.697479   C760.327209,233.697479 770.407104,233.697479 780.796387,233.697479   C780.796387,236.289001 780.796387,238.363510 780.796387,240.911789   C770.802734,240.911789 760.719482,240.911789 750.233276,240.911789   C750.233276,249.564499 750.233276,257.756409 750.233276,266.471893   C754.791138,266.471893 759.218628,266.471893 763.785767,266.471893   C763.785767,269.089325 763.785767,271.187500 763.785767,273.560303   C752.627258,273.560303 741.697144,273.560303 730.376953,273.560303   C730.376953,271.352753 730.376953,269.157532 730.376953,266.568817   C734.069580,266.568817 737.694214,266.568817 741.652405,266.568817   C741.652405,246.632767 741.652405,227.079224 741.652405,207.162506   C737.932129,207.162506 734.325134,207.162506 729.600037,207.162506   C730.179443,204.307602 730.653809,201.970398 731.578369,199.594955  z"
   id="path1015"
   style="fill:#2e6081;fill-opacity:1" />
<path
   fill="#24659D"
   opacity="1.000000"
   stroke="none"
   d=" M150.874512,236.999969   C150.874451,226.873810 150.874451,217.247635 150.874451,207.317566   C143.907608,207.317566 137.336243,207.317566 130.186249,207.317566   C130.186249,211.573792 130.186249,215.804382 130.186249,220.248779   C127.505325,220.248779 125.397072,220.248779 122.914352,220.248779   C122.914352,213.575577 122.914352,206.990570 122.914352,199.968597   C143.943604,199.968597 165.146591,199.968597 186.688019,199.968597   C186.688019,206.587921 186.688019,213.290268 186.688019,220.218567   C184.302246,220.218567 182.047134,220.218567 179.368378,220.218567   C179.368378,215.887695 179.368378,211.795761 179.368378,207.361588   C172.399994,207.361588 165.850357,207.361588 159.059326,207.361588   C159.059326,226.935272 159.059326,246.347107 159.059326,266.300751   C162.912201,266.300751 166.648270,266.300751 170.749252,266.300751   C170.749252,268.890869 170.749252,270.949554 170.749252,273.421356   C160.141632,273.421356 149.454102,273.421356 138.476410,273.421356   C138.476410,271.237396 138.476410,269.164307 138.476410,266.475830   C142.536163,266.475830 146.445786,266.475830 150.874573,266.475830   C150.874573,256.414764 150.874573,246.957382 150.874512,236.999969  z"
   id="path1017"
   style="fill:#2e6081;fill-opacity:1" />
<path
   fill="#26679D"
   opacity="1.000000"
   stroke="none"
   d=" M439.401306,204.989166   C439.453186,210.713821 439.453186,216.026596 439.453186,221.725311   C436.970825,221.725311 434.752075,221.725311 431.860901,221.725311   C431.860901,218.779083 431.663239,215.660889 431.917358,212.579941   C432.164093,209.588318 431.248840,207.571579 428.166534,207.383560   C420.763489,206.931976 413.086914,205.326797 405.986938,206.663437   C388.714630,209.915100 380.175079,225.531921 383.938293,244.677567   C386.978943,260.146790 402.066406,270.382263 418.517456,267.456329   C425.603363,266.196045 432.435333,263.508026 439.338654,261.481537   C440.667175,267.887695 440.410828,268.478790 434.018738,271.095367   C421.489166,276.224365 408.790192,277.106049 396.244293,271.494415   C380.103851,264.274933 372.436401,247.284653 375.962067,227.520462   C378.982452,210.589035 392.186615,199.263504 410.809540,198.250076   C420.802460,197.706268 430.699249,198.589615 439.401306,204.989166  z"
   id="path1019"
   style="fill:#2e6081;fill-opacity:1" />
<path
   fill="#26679D"
   opacity="1.000000"
   stroke="none"
   d=" M445.900909,201.323029   C446.699738,200.430115 447.474823,199.604843 448.257629,199.597443   C457.724915,199.508163 467.193390,199.539612 477.078247,199.539612   C477.078247,202.031464 477.078247,204.233780 477.078247,206.940369   C473.526733,206.940369 469.953430,206.940369 466.115051,206.940369   C466.115051,226.962753 466.115051,246.489761 466.115051,266.440247   C469.832764,266.440247 473.265015,266.440247 477.084229,266.440247   C477.084229,268.916718 477.084229,270.978424 477.084229,273.445312   C466.954010,273.445312 456.753906,273.445312 446.210815,273.445312   C446.210815,271.359924 446.210815,269.295776 446.210815,266.561493   C449.902771,266.561493 453.621796,266.561493 457.595245,266.561493   C457.595245,246.510590 457.595245,227.112244 457.595245,207.153687   C453.822357,207.153687 450.088470,207.153687 445.880768,207.153687   C445.880768,204.991455 445.880768,203.381073 445.900909,201.323029  z"
   id="path1021"
   style="fill:#2e6081;fill-opacity:1" />
<path
   fill="#24659D"
   opacity="1.000000"
   stroke="none"
   d=" M2404.007812,586.174561   C2408.951416,586.174561 2413.402100,586.174561 2418.141846,586.174561   C2418.141846,589.256348 2418.141846,591.844238 2418.141846,594.757812   C2415.878906,594.914856 2413.633545,595.070740 2411.113770,595.245667   C2411.113770,608.288818 2411.113770,621.166199 2411.113770,634.251343   C2413.481689,634.419739 2415.600342,634.570374 2418.074219,634.746338   C2418.074219,637.559692 2418.074219,640.258179 2418.074219,643.214233   C2409.451660,643.214233 2401.032959,643.214233 2392.289551,643.214233   C2392.289551,640.413269 2392.289551,637.700256 2392.289551,634.755981   C2394.695068,634.577271 2396.971436,634.408203 2399.555664,634.216248   C2399.555664,621.296936 2399.555664,608.553467 2399.555664,595.235718   C2397.266357,595.235718 2394.893799,595.235718 2392.251465,595.235718   C2392.251465,592.079712 2392.251465,589.483276 2392.251465,586.174622   C2395.989746,586.174622 2399.752441,586.174622 2404.007812,586.174561  z"
   id="path1023"
   style="fill:#2e6081;fill-opacity:1" />





</svg>
